<?xml version="1.0" encoding="UTF-8"?>
<svg id="Layer_1" data-name="Layer 1" xmlns="http://www.w3.org/2000/svg" viewBox="0 0 6926.96 2610.34">
  <defs>
    <style>
      .cls-1 {
        fill: #05b2ab;
      }

      .cls-1, .cls-2 {
        stroke-width: 0px;
      }

      .cls-2 {
        fill: #636768;
      }
    </style>
  </defs>
  <path class="cls-1" d="m6406.61,2161.72c-.24-5.24-3.49-9.15-6.57-12.97-31.41-38.88-58.76-80.43-82.57-124.36-17.61-32.49-32.55-66.16-44.84-101-4.64-13.15-9.05-26.39-13.11-39.73-1.48-4.84-.88-9.92,4.49-15.45,68.11-25.38,138.99-48.68,209.17-74.21,4.22.67,6.89,3.49,8.65,7.22,2.12,4.5,4.6,8.95,5.95,13.69,15.95,56.03,41.15,107.81,70.81,157.74,23.04,38.79,49.4,75.09,79.59,108.43,55.39,61.16,118.77,112.32,192.31,150.56,22.16,11.53,44.82,21.91,67.22,32.89,8.06,3.95,16.11,7.97,23.82,12.54,3.35,1.98,5.39,5.65,5.45,9.94-.82,2.27-2.39,2.94-4.74,2.84-3.99-.18-7.99,0-11.99.05-49.96.67-99.93,1.31-149.89,2.1-3.82.06-7.62,1.21-11.01,1.79-.8,2.78-1.32,4.6-2.09,7.29,10.96,18.44,25.6,34.89,38.88,52.32,13.3,17.46,26.88,34.7,40.07,52.24,13.11,17.43,26.72,34.52,38.87,52.5-2.59,2.11-4.4,4.41-5.18,4.1-21.28-8.47-42.51-17.06-63.63-25.91-58.03-24.33-113.91-52.92-167.64-85.63-17.02-10.36-33.12-22.25-49.58-33.54-4.96-3.4-9.71-7.1-18.19-6.47-1.87,1.04-5.67,2.48-8.68,4.92-17.06,13.84-33.57,28.4-50.97,41.79-16.61,12.78-33.88,24.73-51.2,36.53-37.98,25.87-77.55,49.25-118.13,70.66-39.63,20.91-80.95,38.46-122.37,55.62-32.27,13.37-65.41,24.42-98.84,34.08-27.71,8.01-55.08,17.64-83.97,21.79-13.68,1.96-27.36,5.81-40.78,9.42-28.14,7.57-57.45,7.31-85.58,14.41-5.75,1.45-11.87,1.69-17.84,1.99-15.96.79-31.75,2.25-47.62,4.79-17.65,2.82-35.82,2.97-53.77,3.25-29.99.47-60,.61-89.99-.02-23.91-.5-47.95-.31-71.49-5.86-1.93-.46-3.97-.74-5.95-.67-33.26,1.09-65.39-7.91-98.18-10.92-2.98-.27-6.06-.36-8.91-1.16-33.62-9.47-68.31-13.92-102.11-22.99-39.52-10.6-78.46-22.69-117.19-35.71-43.53-14.63-85.48-33.11-126.95-52.65-44.26-20.85-87.03-44.52-128.54-70.43-44.97-28.08-87.23-59.84-128.33-93.31-43.55-35.45-83.33-74.83-120.43-116.67-41.77-47.1-78.84-97.98-109.78-153.05-19.03-33.87-36.35-68.62-50.64-104.74-12.47-31.53-22.2-63.95-30.83-96.83-6.12-23.3-9.34-46.97-13.93-70.44-4.99-25.58-4.96-51.72-5.01-77.71-.13-76-.04-152-.04-228,0-219-4.64-1203.5-4.64-1445.49,0-4.97,0-9.94,0-11.73,2.32-7.31,5.38-9.6,11.05-11.56,3.25.2,8.27.12,13.15.88,29.6,4.6,59.22,9.12,88.38,16.21,6.76,1.64,13.77,2.26,20.67,3.31,6.91,1.05,14.06,1.3,20.7,3.25,10.64,3.12,21.31,4.82,32.37,5.55,14.08.93,27.32,5.3,40.1,12.89.44,4.96,1.19,9.87,1.26,14.79.18,12,.03,24,.03,36,0,347-1.02,1374.92-2.27,1541.88-.25,33.02,2.35,65.9,3.6,98.84.38,10.07,1.94,19.86,4.82,29.5,1.43,4.78,2.84,9.63,3.55,14.56,4.45,30.87,14.81,60.1,26.2,88.8,27.77,69.99,66.01,133.94,113.73,192.26,20.28,24.79,42.24,48.01,64.58,70.85,29.4,30.06,62.5,55.87,95.69,81.55,29.28,22.65,60.63,42.25,92.26,61.27,18.73,11.27,38.25,21.35,58.02,30.95,27.84,13.52,55.8,26.63,84.56,38.03,10.18,4.04,20.25,8.47,30.66,11.83,30.34,9.77,60.55,20.15,91.36,28.18,18.25,4.76,36.38,11.08,55.56,11.93,1.99.09,4.07.25,5.92.91,19.99,7.17,41.23,7.39,61.8,11.28,17.74,3.36,35.63,4.48,53.58,5.74,47.93,3.36,95.92,2.69,143.88,2.22,22.96-.23,46.17-.68,68.78-4.18,28.55-4.41,57.65-5.57,85.63-13.97,14.28-4.29,29.35-5.39,43.95-9.02,24.21-6.03,48.16-12.85,71.93-20.31,53.33-16.75,104.82-37.98,154.71-63.32,41.05-20.85,80.32-44.41,117.93-70.9,23.7-16.69,46.46-34.57,68.5-53.37,5.24-4.47,11.15-8.73,11.82-16.68Z"/>
  <path class="cls-2" d="m1706.57,938.69c5.63-13.64,9.04-21.9,12.71-30.79,3.89-21.02,4.9-42.9,4.84-64.95-.24-92-.12-183.99-.07-275.99,0-8.99.15-17.99.81-26.95.3-4.07,3.02-7.26,7.06-9.28,1.66-.48,3.55-1.5,5.45-1.5,30.99-.07,61.97-.05,92.96.09,1.89,0,3.78,1.16,5.56,1.74,3.47,2.47,6.03,5.62,6.25,9.81.47,8.97.75,17.97.76,26.95.05,98,.02,195.99.03,293.99,0,12.99.58,25.79,3.17,38.72,4.61,22.98,14.3,43.17,27.88,62.04,26.61,36.98,62.02,60.7,104.88,75.76,35.08,12.33,70.33,12.62,106.33,9.61,32.58-2.72,61.32-16.26,89.5-31.46,35.77-26.74,66.64-57.32,80.24-101.6,1.75-5.7,4.36-11.13,6.88-17.45.5-18.39,1.43-37.37,1.46-56.34.15-91,.02-181.99.13-272.99.01-9.89-1.52-19.95,1.63-29.11,4.07-5.99,9.74-8.21,15.81-8.28,29.94-.33,59.89-1.05,90.14.41,3.01,2.78,5.87,5.42,7.77,7.17,3.89,10.11,2.47,19.2,2.48,28.11.1,97,.12,193.99,0,290.99-.02,16.08,1.77,31.65,5.85,47.37,9.34,36,28.07,65.96,55.6,90.26,22.6,19.94,48.64,34.04,77.45,43.88,17.41,5.95,34.64,8.79,52.71,8.77,42-.05,83.99.03,125.99-.03,58.64-.09,109.08-21,152.08-60.43,20.93-19.19,36.86-42.23,46.18-68.84,6.22-17.76,10.04-36.6,10.29-55.77.1-8,.07-16,.07-24,0-88-.01-175.99.02-263.99,0-8.99-.03-18.01.58-26.97.41-5.9,1.4-11.94,6.04-16.42,20.85-3.27,41.01-3.64,98.35-1.81,4.04,1.19,7.33,3.23,9.31,7.2.49,1.73,1.44,3.62,1.49,5.54.28,9.99.46,19.99.46,29.98.03,90,.14,179.99-.07,269.99-.05,22.08,2.03,43.88,5.39,65.48,2.22,4.71,4.71,9.08,6.41,13.74,12.39,34,34.7,60.04,63.46,81.38,12.88,9.56,26.01,18.45,40.69,24.9,39.2,17.24,80.02,23.51,122.67,18.77,26.85-2.98,62.13-14.27,87.1-29.06,27.03-16,49.94-36.44,67.48-62.65,18.37-27.45,26.93-54.4,26.96-87.21.12-118,.02-235.99.12-353.99,0-9.9-1.47-19.95,1.96-30.06,2.01-1.8,4.2-3.77,6.11-5.48,21.83-2.5,63.49-2.88,99.11-.97,6.88,3.58,9.97,9.7,10.55,17.01.55,6.96.52,13.98.52,20.97.03,115-.08,229.99.12,344.99.03,18.07-1.97,35.9-3.84,53.79-1.57,15.06-7.67,28.95-12.63,42.9-9.71,27.28-30.44,58.32-50.3,80.59-37.92,42.52-83.48,73.53-137.04,93.31-23.56,8.7-47.39,14.54-72.27,17.93-21.95,2.99-43.84,4.31-65.76,3.21-35.93-1.8-71.02-7.69-105.58-19.06-46.72-15.37-93.87-48.19-125.64-78.87-5.03-4.86-9.69-10.1-14.88-14.78-2.13-1.92-5.2-2.79-7.23-3.83-6.25-.27-10.05,3.07-13.6,6.49-13.68,13.16-27.13,26.49-42.23,38.16-23.01,17.78-47.19,33.63-74.09,44.61-27.73,11.32-56.15,19.92-86.34,23.54-26.95,3.23-53.77,3.92-80.75,3.94-31,.03-62.01-.69-92.98.24-23.18.69-46.04-1.64-68.44-6.3-20.43-4.25-40.37-11.11-59.47-19.95-39.27-18.17-75.03-41.3-104.93-72.99-5.43-5.75-11.98-10.45-18.08-15.55-.71-.6-1.87-.66-2.67-.92-4.39-.18-7.8,1.64-10.76,4.5-8.63,8.33-17.2,16.71-25.88,24.99-17.4,16.61-36.45,31.14-57.26,43.14-27.7,15.98-57.25,28-88.19,35.75-19.3,4.83-39.2,8.01-59.03,9.74-18.86,1.65-38.16,2.24-56.91.11-34.6-3.93-69.38-8.31-101.52-23.42-26.36-7.35-49.26-21.5-71.28-37.08-21.21-15.01-41.82-30.83-58.57-51.06-2.45-2.96-6.19-4.86-8.1-6.31-5.98-1.3-9.59.64-12.51,3.24-8.2,7.31-16.1,14.95-24.12,22.47-26.42,24.78-55.73,45.14-88.98,59.89-21.96,9.75-45.2,15.35-67.89,22.76-38.7,4.11-77.29,10.68-116.4,4.69-5.93-.91-11.91-1.4-17.87-2.15-44.09-5.57-85.05-20.03-122.98-43.2-8.51-5.2-17.19-10.14-26.03-14.75-2.4-1.25-5.66-.88-8.22-1.22-1.59,1.96-3.53,3.29-3.92,4.99-8.88,38.89-24.81,69.65-49.17,100.92-19.88,25.52-43.07,47.23-69.16,65.89-33.55,23.99-69.78,42.54-110.61,50.9-28.71,10.92-59.07,9.64-88.86,10.74-22.86.84-46.14-.58-68.72-4.18-22.51-3.58-44.91-9.44-66.24-17.97-19.48-7.8-38.65-16.67-55.98-28.55-32.23-22.09-62.19-46.72-86.13-78.22-23.14-30.45-38.72-61.67-46.93-98.83-8-19.01-7.21-39.07-7.2-59.07.05-78-.04-156,.08-233.99.02-9.88-1.65-19.99,2.51-30.18,2.17-1.27,4.62-3.92,7.2-4.04,32.91-1.6,65.84-2.19,98.75.18.9.06,1.74.8,3.88,1.84.85,2.79,2.68,6.44,2.95,10.2.57,7.96.39,15.98.39,23.98.02,72-.02,144,.02,215.99.02,35.27-.67,35.52,9.97,67.68,6.58,19.87,16.8,38.43,30.74,54.29,13.85,15.76,29.41,29.64,46.93,41.61,15.86,10.83,33.23,18.3,50.86,24.46,33.41,11.67,68.52,15.37,103.45,10.17,33.52-4.99,65.73-15.2,94.3-34.96,15.71-10.87,30.34-22.58,42.89-37.05,10.54-12.14,20.03-24.79,26.31-39.72,2.31-5.5,5.39-10.68,7.61-15.03,1.88-7.85,3.39-14.68,5.17-21.45,2.56-9.75,3.54-19.63,3.47-29.69-.12-16-.01-32-.01-48,0-140,0-279.99.01-419.99,0-8.99-.03-18,.45-26.98.27-5,1.95-9.77,6.1-13.3,1.74-.65,3.57-1.91,5.41-1.93,28.99-.22,57.98-.32,86.98-.33,6.01,0,12.11.18,17.54,7.16.36,2.01,1.48,5.86,1.65,9.75.34,7.99.19,15.99.19,23.99,0,93,0,185.99,0,278.99,0,7-.27,14.01.09,21,.79,14.96,1.4,29.92,8.32,43.83,2.17,4.37,2.59,9.61,3.92,14.84,2.42,3.92,5.39,8,7.61,12.45,14.25,28.58,37.47,49.11,62.07,68.07,11.78,9.08,25.39,15.64,39.3,21.35,34.81,14.3,70.95,20.2,108.37,16.85,67.34-6.03,121.52-35.8,161.17-91.04,4.65-6.48,8.98-13.21,11.84-17.43Z"/>
  <path class="cls-1" d="m6477.39,1633.9c-9.42,4.37-18.2,9.03-27.4,12.62-62.07,24.19-123,51.23-184.78,74.5-2.5-1.71-4.1-2.81-6.82-4.68-.31-3-1.05-6.87-1.05-10.74.14-552.88.33-1105.76.63-1658.64,0-1.78,1.56-3.57,2.39-5.35,1.71-.99,3.3-2.48,5.14-2.89,15.56-3.52,31.13-7,46.76-10.18,23.46-4.78,46.89-9.76,70.48-13.84,27.52-4.77,54.61-12.06,82.55-14.34,4.05-.33,7.94-.06,11.75,3.87.56,1.87,2,4.66,2.11,7.49.36,8.98,1.8,1600.64,1.31,1610.62-.19,3.8-1.94,7.53-3.06,11.58Z"/>
  <path class="cls-2" d="m5606.82,2019.02c-25.24,2.51-131.94,2.73-158.93.46-2.38-1.84-5.45-4.21-9.06-7.01-.16-9.14-.44-18.06-.44-26.99-.02-486.77-.02-973.54-.01-1460.31,0-102.95-.02-205.9.02-308.85,0-8.98.08-17.99.63-26.95.32-5.1,2.84-9.47,7.98-13.29,1.89-.41,4.75-1.51,7.63-1.59,54.75-1.5,127.81-.7,149.63,1.5,3.4,2.59,5.41,5.99,5.56,10.16.29,7.98.44,15.98.44,23.97.02,592.72.02,1185.44,0,1778.16,0,6.99.07,14-.37,20.97-.18,2.79-1.68,5.49-3.09,9.76Z"/>
  <path class="cls-2" d="m6031.22,1843.79c-3.39,3.23-5.53,5.26-6.14,5.84-4.15,1.33-6.03,2.45-7.92,2.46-45.99.22-91.98.34-137.97.41-6.06,0-12.05-.52-17.05-7.93-.3-2.08-1.22-5.94-1.35-9.84-.27-7.99-.13-16-.13-24,0-532-.02-1063.99.06-1595.99,0-11.9-1.54-23.97,1.71-34.65,3.36-4.39,7.11-5.62,11.18-5.62,47-.07,93.99-.09,140.99-.06,5.16,0,9.82,1.53,14.26,6.82.54,2.52,1.89,6.36,2.06,10.24.4,8.98.27,17.99.27,26.99,0,531,0,1061.99,0,1592.99,0,9.98,0,19.96,0,32.34Z"/>
  <path class="cls-2" d="m5179.56,1781.24c-32.71,1.37-130.65,1.08-152.76-.47-1.58-1.18-3.15-2.36-5.41-4.05-.54-3.3-1.57-7.19-1.72-11.11-.31-7.99-.16-15.99-.16-23.98,0-509.75,0-1019.5,0-1529.26,0-8-.18-16.01.31-23.98.23-3.77,1.83-7.46,2.6-10.42,2.95-1.33,4.74-2.85,6.53-2.85,49.94-.13,99.89-.1,150.17-.1,3.52,1.18,7.05,2.89,9.55,8.92-.06-.19.95,1.68,1.02,3.59.33,8.98.54,17.97.54,26.96.02,508.75.02,1017.51.02,1526.26v29.27c-2.24,3.28-3.69,5.93-5.66,8.09-1.28,1.4-3.33,2.1-5.03,3.12Z"/>
  <path class="cls-2" d="m2348.41,2036.91c-6.11,16.17-12.9,27.03-26.53,35.3-5.4,1.92-12.9,4.59-21.99,7.82-160.37.02-322.26,0-481.16.01-8.17,3.96-9.68,8.68-9.3,13.81,3.13,42.04,17.29,79.37,46,111.05,30.57,33.72,68.8,54.37,111.95,65.78,22.17,5.86,45.52,5.92,68.56,4.92,8.98-.39,17.96-1.16,26.89-2.17,18.93-2.13,36.68-7.84,54.22-15.52,36.07-15.81,63.13-41.36,84.54-73.64,4.45-6.71,9.14-13.07,15.62-17.56,4.49-1.44,7.79.86,11.43,2.48,23.62,10.53,47.22,21.14,71.08,31.12,6.68,2.79,12.23,6.36,17.47,11.9-.96,2.9-1.39,5.82-2.79,8.15-31.15,51.75-73.81,90.73-127.4,118.93-28.59,15.05-58.87,23.94-89.42,32.78-4.75,1.38-9.83,1.73-14.79,2.26-3.97.43-8.25-.44-11.93.74-20.48,6.53-41.53,4.78-62.45,4.94-10.98.08-21.99.55-32.58-3.56-2.71-1.05-5.89-.89-8.86-1.25q-33.7-4.1-74.8-19.01c-25.92-9.4-41.67-18.49-66.17-33.73-20.58-12.81-38.81-28.13-55.56-45.35-28.86-29.68-51.52-63.45-64.22-103.12-4.84-15.11-8.32-30.74-11.29-46.34-1.85-9.74-2.09-19.87-2.16-29.84-.23-36.99-.06-73.98-.1-110.97-.01-15.03.9-29.77,5.92-44.28,3.22-9.31,3.09-19.78,6.23-29.13,14.22-42.27,36.94-79.38,69.35-110.29,13.01-12.41,26.35-24.3,40.8-35.17,28.23-21.23,60.21-34.52,92.66-47.17,20.45-3.85,39.74-13.56,61.24-12.1,22.54-6.07,45.59-4.69,68.53-4.51,7.91.07,15.82,1.55,23.72,2.44,4.95.56,9.87,1.34,14.82,1.86,37.6,3.91,78.51,16.93,113.02,36.02,7.85,4.34,15.94,8.3,23.49,13.1,50.04,31.82,88.63,74.12,114.02,127.78,6.75,14.26,11.65,29.38,15.33,45.09,5.55,23.66,7.14,47.28,6.65,71.31-.25,11.98-.04,23.97-.04,35.11Zm-377.12-226.11c-9.75,3.31-19.14,6.59-28.59,9.67-21.05,6.85-40.47,17.2-57.91,30.44-28.2,21.4-50.41,48.11-63.86,81.27-4.81,11.87-7.9,24.32-9.09,35.32,3.09,7.13,7.5,9.48,12.62,9.86,7.95.59,15.95.62,23.92.62,114.81.03,229.61.04,344.42-.01,8.97,0,17.95-.22,26.89-.87,2.79-.2,5.45-2.13,7.84-3.14.97-2.26,1.74-4.07,2.65-6.2-2.96-12.3-5.98-24.88-8.72-36.26-2.9-5.48-5.28-9.85-7.54-14.29-11.47-22.48-26.48-42.37-46.04-58.22-22.57-18.28-47.45-32.71-75.86-40.41-7.66-2.08-14.98-5.39-21.98-7.96-40.31-3.17-60.57-3.12-98.77.18Z"/>
  <path class="cls-2" d="m3190.84,2044.51c-10.6,22.45-27.14,30.71-50.32,36.01-153.95,0-311.87,0-469.79.06-1.94,0-3.88.88-5.82,1.36-6.12,3.16-8.08,8.72-7.68,14.96.76,11.96,2.06,23.88,3.02,34.54,8.47,27.32,22.05,50.11,39.24,71.34,14.15,17.48,31.66,30.6,50.18,42.11,20.29,12.62,42.72,21.81,66.22,26.7,14.57,3.03,29.78,4.06,44.7,4.05,18.94,0,37.88-1.98,56.83-3.1,47.82-11.51,90.47-31.35,119.12-73.82,5.01-7.42,10.19-14.74,15.46-21.98,2.91-4.01,5.75-8.24,11.76-9.94,2.15.5,5.2.74,7.83,1.9,26.42,11.63,52.87,23.19,79.74,33.76,5.7,2.24,10.02,6.36,10.99,13.88-29.7,52.22-72.1,91.89-124.7,120.92-23.56,13.01-48.45,22.74-74.67,29.59-14.56,3.8-28.76,8.05-43.92,7.9-20.39,6.71-41.48,5.16-62.43,5.3-12.01.08-23.99.21-35.6-3.75-2.8-.95-5.85-1.31-8.81-1.59-59.35-5.69-111.27-29.42-158.43-64.93-30.62-23.05-56.91-50.03-76.9-82.88-10.88-17.87-19.34-36.64-26.12-56.63-7.88-23.27-9.5-46.91-9.98-70.76-.77-37.97-.49-75.97-.05-113.95.17-14.96.94-30.06,3.35-44.79,2.23-13.64,5.65-27.42,10.92-40.16,19.78-47.85,49.63-88.32,90.43-120.7,29.97-23.79,62.18-43.35,98.57-55.49,21.72-7.25,43.53-13.58,66.67-15.98,19.87-2.06,39.57-4.82,59.63-4.48,15,.25,29.99-.08,44.68,3.74,2.88.75,5.89,1.19,8.87,1.39,41.73,2.8,79.48,18.22,115.85,37.36,22.11,11.64,42.38,26.58,61.19,42.8,25.02,21.57,45.86,47.18,61.48,76.58,6.05,11.38,11.99,22.9,16.87,34.81,4.14,10.1,6.84,20.81,9.88,31.33,1.1,3.81,1.66,7.84,1.95,11.81,2.26,30.92,3.18,61.86,1.09,92.82-.2,2.97-.95,5.9-1.29,7.9Zm-525.43-67.72c5.78.4,11.66,1.08,17.55,1.17,146.49,2.12,359.58,1.16,387.15-1.75,1.36-2.08,4.09-4.4,4.3-6.94.49-5.88,1.07-12.3-.75-17.7-4.11-12.2-8.94-24.29-14.76-35.77-17.7-34.93-45.76-59.63-78.78-79.84-19.05-11.66-40.75-15.65-60.76-24.32-13.92-1.1-27.82-2.73-41.76-3.18-20.98-.69-41.97-.33-63.42,2.82-5.95,2.25-12.39,5.04-19.04,7.14-43.04,13.62-78.79,37.25-106.22,73.75-12.85,17.09-21.05,35.93-27.29,55.84-2.02,6.43-1.45,13.82-1.16,20.73.11,2.49,2.9,4.87,4.94,8.04Z"/>
  <path class="cls-2" d="m547.27,2378.85c-2.4-2.79-4.32-5.03-5.94-6.92-3.58-17.2,1.28-34.45-3.1-50.82-2.31-.95-4.09-1.68-6.71-2.76-2.98,1.58-6.75,3.04-9.89,5.35-24.37,17.95-52.66,27.89-80.14,39.5-18.78,2.67-36.29,11.3-55.57,11.79-4.96.12-10.19.26-14.78,1.87-9.74,3.4-19.66,3.18-29.64,3.19-9,.01-18,.01-26.99,0-9.99-.01-20.02.54-29.61-3.29-1.82-.73-3.91-1.2-5.84-1.12-21.42.94-41.27-6.78-61.48-11.78-14.39-3.56-28.36-9.6-41.79-16.06-25.17-12.1-49.75-25.41-70.67-44.4-11.83-10.74-23.96-21.15-35.42-32.27-12.97-12.59-22.94-27.68-32.38-42.94-19.12-30.92-29.69-65.09-35.79-100.68-1.34-7.83-1.42-15.93-1.45-23.91-.13-40.99,0-81.99-.09-122.98-.04-15.09,3.21-29.56,5.98-44.33,8.72-46.59,30.49-86.29,61.61-120.96,39.42-43.93,87.44-75.7,143.84-93.42,20.72-6.51,41.68-13.98,64.07-13.49,20.59-5.29,41.62-4.3,62.58-4.37,11.01-.03,21.9.19,32.7,3.15,5.69,1.56,11.85,1.42,17.81,1.94,8.98.78,17.92,1.7,26.28,5.5,1.81.83,3.67,1.83,5.6,2.09,28.29,3.91,53,17.35,77.55,30.41,47.46,25.25,87.44,59.53,117.02,104.79,16.42,25.11,27.37,52.55,34.33,82.09,4.89,20.77,6.49,41.28,6.47,62.29-.08,114.98-.03,229.97-.06,344.95,0,9.94-.29,19.88-.44,29.16-2.8,2.98-4.82,5.14-6.55,6.98-2.35.8-4.23,1.99-6.12,2.01-26.98.28-53.97.47-80.96.52-4.93,0-9.85-.72-14.46-1.08Zm-265.03-568.36c-15.66,5-28.24,8.28-40.25,13.01-32.14,12.64-59.92,32.02-82.33,58.22-27.38,32.01-43.01,68.99-42.91,111.8.08,32.97.54,65.96-.17,98.92-.44,20.51,4.97,39.7,11.83,58.3,15.11,40.94,44.28,70.82,80.41,93.72,35.36,22.41,75.32,30.73,116.58,33.34,6.9.44,13.93-.67,20.87-1.42,6.94-.75,13.81-2.15,20.76-2.9,22.08-2.39,42.59-9.79,62.57-19.06,28.64-13.3,52.38-33.15,72.04-57.27,23.92-29.33,37.25-63.53,37.99-101.71.67-34.96-.02-69.94.34-104.91.2-19.39-5.63-37.53-11.48-55.43-3.32-10.16-8.12-20.13-14.16-29.48-18.81-29.14-42.72-52.37-73.39-68.8-14.11-7.56-28.13-14.82-43.95-18.41-7.7-1.75-14.96-5.41-21.05-7.69-32.41-3.42-63.32-3.41-93.7-.23Z"/>
  <path class="cls-2" d="m3776.01,2371.52c-19.32,3.11-32.08,5.39-44.91,7.14-6.89.94-13.9,1.27-20.87,1.34-17.98.18-36.03-.83-53.95.26-27.17,1.65-53.74-2.81-80.17-7.2-20.55-3.41-40.39-10.81-59.13-20.12-47.84-23.75-85.66-58.12-108.8-106.93-7.17-15.12-15.93-30.05-15.53-47.95,1.52-6.61,7.18-9.09,12.69-11.3,3.65-1.46,7.72-2.28,11.66-2.55,20-1.38,39.46-6.01,59.13-9.39,4.91-.84,9.86-1.48,13.74-2.06,7.1.97,12.87,2.33,18.76,8.24,2.56,11.93,6.44,25.3,14.31,37.04,11.97,18.81,27.96,33.54,47.91,43.78,23.74,12.16,49.47,14.42,75.68,14.19,14.99-.13,29.98-.21,44.96.02,27.17.42,53.93-1.42,83.55-15.46q30.41-19.76,53.11-60.41c1.64-10.46,3.34-21.29,5.11-32.53-1.53-8.51-3.11-17.35-4.57-25.51-12.51-29.33-37.63-40.63-68.49-49.65-15.63,0-34.6,0-53.57,0-41.97,0-83.94.14-125.9-.03-41.11-.17-78.29-12.8-111.99-36.1-10.68-7.38-21.55-14.49-30.44-24.14-14.93-16.2-29.02-32.92-36.16-54.35-1.56-4.69-4.17-9.03-6.51-13.97-1.85-14.47-3.74-29.32-5.65-44.32,1.15-9.83,2.84-19.72,3.36-29.67,1-19.39,8.17-36.61,16.93-53.52,8.72-16.83,18.29-32.75,31.08-47.15,31.35-35.32,68.95-59.71,114.74-71.51,7.68-1.98,15.03-6.81,22.66-7.14,22.96-.97,45.21-8.2,68.45-6.68,14.92.97,29.96.22,44.95.17,13.99-.04,27.98-.42,41.64,3.57,2.85.83,5.91,1.23,8.89,1.28,37.06.57,70.24,14.76,101.06,32.88,41.25,24.23,73.03,58.44,92.59,102.9,2.01,4.56,3.86,9.19,5.91,13.73,4.17,9.26,6.04,18.87,5,28.7-1.8,1.56-3.04,3.47-4.7,3.94-10.55,2.99-21.04,6.67-31.82,8.21-18.76,2.68-37.66,4.15-56.06,9.27-6.66,1.85-13.91,1.93-20.84-3.77-6.79-8.95-5.54-21.97-12.02-32.43-6.36-10.24-13.4-19.77-21.15-29.46-17.72-12.41-36.16-24.19-62.35-32.29-42.79-2-90.67-1.21-136.08-.31-11.82,4.36-21.17,7.81-31.53,11.64-8.26,5.43-17.42,11.46-27.27,17.94-6.54,7.88-13.55,16.32-16.96,20.42-18.69,28.88-18.76,55.4-14.5,81.55,21.31,32.44,22.02,33,61.83,48.75,8.8.16,19.76.53,30.73.55,48.96.06,97.93.3,146.89-.07,36.79-.28,71.21,8.85,103.34,25.98,43.33,23.1,67.77,49.97,88.03,97.61,3.02,17.58,10.61,34.33,9.93,52.58-.22,5.95-.96,11.92-1.94,17.79-.82,4.91-2.75,9.64-3.52,14.55-8.36,53.21-37.42,93.76-78.57,126.3-23.58,18.65-50.16,32.35-79.22,40.86-5.73,1.68-11.28,4.01-13.45,4.79Z"/>
  <path class="cls-2" d="m1491.07,2379.6c-32.46.6-64.37.95-96.35-.2-3.4-2.5-6.55-4.8-8.89-6.52-1.09-2.99-2.27-4.82-2.35-6.7-.37-8.98-.58-17.97-.58-26.96-.03-109.99-.02-219.97-.02-329.96,0-8-.27-16.01,0-24,1.18-35.71-12.55-66.18-33.28-94.02-23.94-32.15-56.7-52.64-92.58-68.83-22.17-5.59-43.67-14.4-67.26-12.93-9.96.62-20.04.73-29.98-.04-23.6-1.81-45.73,5.09-67.18,12.71-20.53,7.3-40.14,17.45-56.8,32.4-12.63,11.33-25.92,21.75-36.26,35.56-10.84,14.48-21.06,29.02-25.94,46.76-1.31,4.75-3.95,9.13-5.35,13.79-8.01,32.54-6.29,65.62-6.3,98.58-.05,97.99,0,195.97-.03,293.96,0,8.96-.3,17.93-.5,29.05-2.09,2.04-4.88,4.77-5.99,5.87-27.23,2.45-73.2,2.5-99.71.28-1.92-2.41-4.33-5.45-6.97-8.76-.22-8.01-.61-15.97-.62-23.94-.04-119.98-.04-239.97,0-359.95,0-8.99-.08-18.02.56-26.98,1.8-25.26,10.71-55.97,26.04-85.04,13.58-25.75,30.69-48.85,52.01-68.95,21.12-19.9,42.63-39.01,67.76-53.95,22.47-13.36,46.11-23.76,70.98-31.33,54.1-16.48,92.84-18.45,139.06-14.72,48.11,3.89,96.75,15.3,147.03,45.65,34.6,20.88,64.63,46.62,90.89,77.05,19.74,22.87,34.53,49.06,44.57,77.15,7.64,21.38,14.07,43.77,12.98,67.27-.42,8.97.37,17.99.37,26.98.03,114.99.03,229.97.01,344.95,0,6.99-.02,14-.41,20.98-.29,5.17-2.79,9.48-8.89,14.77Z"/>
  <path class="cls-2" d="m3756.36,481.35c3.71-6.38,8.23-8.42,14.19-10.6h90.25c6.22,1.99,10.58,4.22,13.87,9.59v653.45c-2.35,2.69-4.92,5.63-6.78,7.76-3.13.88-5.03,1.87-6.92,1.87-30.97.1-61.94.07-93.51.07-2.88-2.24-5.95-4.64-8.11-6.31-1.12-3.16-2.25-4.99-2.35-6.87-.39-6.97-.61-13.97-.61-20.95-.03-202.95-.03-405.9-.03-608.84,0-6.97,0-13.94,0-19.15Z"/>
  <path class="cls-2" d="m3732.41,331.72c6.27-3.76,13.39-2.46,20.28-2.8,6.89-.34,14.04.73,20.23-3.58,5.04-7.12,1.04-15.56,3.44-23.15,2.4-7.57,4.11-15.36,6.2-23.35,13.42-22.93,11.5-26.84,58.69-49.47,20.36-2.71,42.19-2.89,64.03-.37,1.76.2,3.35,1.94,6.16,3.67,2.57,15.93,2.41,32.69.07,49.43-.36,2.58-3.14,4.82-4.87,7.31-13.83,4.13-28.01.39-42.52,2.99-1.96.96-4.8,2.01-7.27,3.61-11.99,7.79-8.25,25.54,6.05,30.62,4.57,1.63,9.74,1.78,14.67,2.19,9.84.83,19.96-1.6,30.13,2.69,1.26,2.13,3.75,4.51,4.07,7.15,1.87,15.82,2,31.67.05,46.02-3.1,5.14-6.67,6.65-10.76,6.99-3.97.33-7.96.48-11.94.49-45.87.03-91.74.05-137.61-.02-6.9-.01-14.01.9-21.53-3.93-5.78-13.26-2.15-28.34-2.84-43-.24-5.04,1.06-9.89,5.29-13.53Z"/>
  <path class="cls-2" d="m3561.6,394.98c-2.21,3.43-4.34,6.72-6.03,9.33-2.76,1-4.57,2.22-6.39,2.24-28.82.2-57.64.28-86.46.3-5.99,0-12-.27-16.24-5.58-3.44-18.91-3.97-52.72-1.37-88.85,2.54-6.24,7.5-9.26,13.92-9.29,30.78-.14,61.55-.06,90.58-.06,6.51,3,9.64,6.66,11.99,13.26v78.66Z"/>
  <path class="cls-2" d="m2945.39,1316.36c-2.93,3.17-4.92,5.32-5.83,6.31-23.51,3.01-76.34,3.27-105.24.51-1.51-1.4-4.37-4.04-5.55-5.12-2.71-35.7-2.24-70.1,1.03-89.51,2.2-1.38,4.51-3.43,7.21-4.37,2.74-.96,5.86-1.12,8.81-1.13,27.87-.06,55.75-.05,83.62.06,5.04.02,9.89,1.08,13.4,5.19.87,1.81,2.44,3.57,2.45,5.34.16,26.84.11,53.67.11,82.73Z"/>
  <path class="cls-2" d="m3117.53,1311.89c-2.94,4.46-5.62,8.53-8.35,12.66h-95.42c-5.73-1.76-9.09-5.22-11.35-9.89-2.44-39.5-1.89-67.89,1.68-85.92,4.23-5.23,10.15-5.74,16.22-5.75,25.88-.04,51.76-.1,77.64-.01,3.89.01,7.78.74,10.72,1.05,6.57,5.64,8.83,12.02,8.84,19.28.05,22.88.02,45.75.02,68.57Z"/>
</svg>